<svg width="38" height="39" viewBox="0 0 38 39" fill="none" xmlns="http://www.w3.org/2000/svg">
<g clip-path="url(#clip0_15805_99071)">
<rect y="0.859375" width="38" height="38" fill="white" fill-opacity="0.2"/>
<path d="M26.9166 32.5234H11.0833V34.1068H26.9166V32.5234Z" fill="#E0FFEF"/>
<path d="M26.9166 5.60938H11.0833V7.19271H26.9166V5.60938Z" fill="#00B45A"/>
<path d="M34.5325 21.0297L33.2341 20.0322C33.2341 19.8897 33.2341 19.8264 33.2341 19.6839L34.5008 18.6864C34.7541 18.4964 34.8175 18.1481 34.6591 17.8789L33.3133 15.5356C33.2025 15.3297 32.9808 15.2189 32.7591 15.2189C32.68 15.2189 32.6008 15.2347 32.5216 15.2664L31.0175 15.8681C30.8908 15.7889 30.8433 15.7572 30.7166 15.6939L30.4791 14.0947C30.4316 13.7622 30.1625 13.5247 29.8458 13.5247H27.1383C26.8216 13.5247 26.5525 13.7622 26.505 14.0631L26.2833 15.6622C26.2358 15.6939 26.1725 15.7097 26.125 15.7414C26.0775 15.7731 26.03 15.8047 25.9825 15.8364L24.4783 15.2347C24.3991 15.2031 24.32 15.1872 24.2408 15.1872C24.0191 15.1872 23.8133 15.2981 23.6866 15.5039L22.3408 17.8472C22.1825 18.1164 22.2458 18.4647 22.4991 18.6547L23.7658 19.6522C23.7658 19.7947 23.7658 19.8581 23.7658 20.0164L22.4991 21.0139C22.2458 21.2039 22.1825 21.5522 22.3408 21.8214L23.6866 24.1647C23.7975 24.3706 24.0191 24.4814 24.2408 24.4814C24.32 24.4814 24.3991 24.4656 24.4783 24.4339L25.9825 23.8481C26.1091 23.9272 26.1725 23.9589 26.2991 24.0222L26.5366 25.6214C26.5841 25.9381 26.8533 26.1597 27.17 26.1597H29.8775C30.1941 26.1597 30.4633 25.9222 30.5108 25.6214L30.7483 24.0222C30.7958 23.9906 30.8591 23.9747 30.9066 23.9431C30.9541 23.9114 31.0016 23.8797 31.0491 23.8481L32.5533 24.4497C32.6325 24.4814 32.7116 24.4972 32.7908 24.4972C33.0125 24.4972 33.2183 24.3864 33.345 24.1806L34.6908 21.8372C34.8491 21.5681 34.7858 21.2197 34.5325 21.0297ZM28.5 22.2331C27.1858 22.2331 26.125 21.1722 26.125 19.8581C26.125 18.5439 27.1858 17.4831 28.5 17.4831C29.8141 17.4831 30.875 18.5439 30.875 19.8581C30.875 21.1722 29.8141 22.2331 28.5 22.2331ZM26.9166 29.3581H11.0833V10.3581H26.9166V11.9414H30.0833V5.60807C30.0833 3.86641 28.6583 2.44141 26.9166 2.44141H11.0833C9.34163 2.44141 7.91663 3.86641 7.91663 5.60807V34.1081C7.91663 35.8497 9.34163 37.2747 11.0833 37.2747H26.9166C28.6583 37.2747 30.0833 35.8497 30.0833 34.1081V27.7747H26.9166V29.3581ZM11.0833 5.60807H26.9166V7.19141H11.0833V5.60807ZM26.9166 34.1081H11.0833V32.5247H26.9166V34.1081Z" fill="#00B45A"/>
</g>
<rect x="0.5" y="1.35938" width="37" height="37" stroke="white" stroke-opacity="0.2"/>
<defs>
<clipPath id="clip0_15805_99071">
<rect y="0.859375" width="38" height="38" fill="white"/>
</clipPath>
</defs>
</svg>
