<svg width="38" height="39" viewBox="0 0 38 39" fill="none" xmlns="http://www.w3.org/2000/svg">
<g clip-path="url(#clip0_15805_99055)">
<rect y="0.859375" width="38" height="38" fill="white" fill-opacity="0.2"/>
<path d="M22.1667 11.9414H34.8334V15.1081H22.1667V11.9414ZM22.1667 18.2747H34.8334V21.4414H22.1667V18.2747ZM22.1667 24.6081H34.8334V27.7747H22.1667V24.6081ZM6.33341 27.7747H15.8334C17.5751 27.7747 19.0001 26.3497 19.0001 24.6081V15.1081C19.0001 13.3664 17.5751 11.9414 15.8334 11.9414H6.33341C4.59175 11.9414 3.16675 13.3664 3.16675 15.1081V24.6081C3.16675 26.3497 4.59175 27.7747 6.33341 27.7747ZM8.31258 21.0456L10.2917 23.4364L13.0626 19.8581L16.6251 24.6081H5.54175L8.31258 21.0456Z" fill="#00B45A"/>
</g>
<rect x="0.5" y="1.35938" width="37" height="37" stroke="white" stroke-opacity="0.2"/>
<defs>
<clipPath id="clip0_15805_99055">
<rect y="0.859375" width="38" height="38" fill="white"/>
</clipPath>
</defs>
</svg>
