<svg width="38" height="38" viewBox="0 0 38 38" fill="none" xmlns="http://www.w3.org/2000/svg">
<g clip-path="url(#clip0_15805_99007)">
<rect width="38" height="38" fill="white"/>
<path d="M19.0001 3.16797C10.2601 3.16797 3.16675 10.2613 3.16675 19.0013C3.16675 27.7413 10.2601 34.8346 19.0001 34.8346C27.7401 34.8346 34.8334 27.7413 34.8334 19.0013C34.8334 10.2613 27.7401 3.16797 19.0001 3.16797ZM19.0001 31.668C12.0176 31.668 6.33341 25.9838 6.33341 19.0013C6.33341 12.0188 12.0176 6.33464 19.0001 6.33464C25.9826 6.33464 31.6667 12.0188 31.6667 19.0013C31.6667 25.9838 25.9826 31.668 19.0001 31.668ZM26.2676 12.003L15.8334 22.4371L11.7326 18.3521L9.50008 20.5846L15.8334 26.918L28.5001 14.2513L26.2676 12.003Z" fill="#00B45A"/>
</g>
<rect x="0.5" y="0.5" width="37" height="37" stroke="white"/>
<defs>
<clipPath id="clip0_15805_99007">
<rect width="38" height="38" fill="white"/>
</clipPath>
</defs>
</svg>
