<svg width="38" height="36" viewBox="0 0 38 36" fill="none" xmlns="http://www.w3.org/2000/svg">
<g clip-path="url(#clip0_14933_98241)">
<rect y="0.378906" width="38" height="35.0563" fill="white" fill-opacity="0.2"/>
<path opacity="0.3" d="M6.33398 28.1331H31.6673V7.68359H6.33398V28.1331ZM21.2332 16.0825L23.4657 18.1567L28.4848 13.5263L30.7332 15.6005L23.4657 22.2904L19.0007 18.1421L21.2332 16.0825ZM7.91732 10.605H15.834V13.5263H7.91732V10.605ZM7.91732 16.4477H15.834V19.369H7.91732V16.4477ZM7.91732 22.2904H15.834V25.2118H7.91732V22.2904Z" fill="#E0FFEF"/>
<path d="M31.667 4.76172H6.33366C4.59199 4.76172 3.16699 6.07633 3.16699 7.68308V28.1326C3.16699 29.7394 4.59199 31.054 6.33366 31.054H31.667C33.4087 31.054 34.8337 29.7394 34.8337 28.1326V7.68308C34.8337 6.07633 33.4087 4.76172 31.667 4.76172ZM31.667 28.1326H6.33366V7.68308H31.667V28.1326Z" fill="#00B45A"/>
<path d="M30.7325 15.6015L28.4842 13.5273L23.465 18.1577L21.2325 16.0835L19 18.1431L23.465 22.2914L30.7325 15.6015Z" fill="#00B45A"/>
<path d="M15.8337 10.6055H7.91699V13.5268H15.8337V10.6055Z" fill="#00B45A"/>
<path d="M15.8337 16.4453H7.91699V19.3667H15.8337V16.4453Z" fill="#00B45A"/>
<path d="M15.8337 22.2891H7.91699V25.2104H15.8337V22.2891Z" fill="#00B45A"/>
</g>
<rect x="0.5" y="0.878906" width="37" height="34.0563" stroke="white" stroke-opacity="0.2"/>
<defs>
<clipPath id="clip0_14933_98241">
<rect y="0.378906" width="38" height="35.0563" fill="white"/>
</clipPath>
</defs>
</svg>
