<svg width="38" height="39" viewBox="0 0 38 39" fill="none" xmlns="http://www.w3.org/2000/svg">
<g clip-path="url(#clip0_15805_99039)">
<rect y="0.859375" width="38" height="38" fill="white"/>
<path d="M17.4167 10.3581C19.6017 10.3581 21.5809 11.2447 23.0217 12.6697L19 16.6914H28.5V7.19141L25.2542 10.4372C23.2434 8.42641 20.4725 7.19141 17.4167 7.19141C11.8275 7.19141 7.23587 11.3239 6.46004 16.6914H9.65837C10.3867 13.0814 13.585 10.3581 17.4167 10.3581ZM26.3467 24.8297C27.3917 23.4047 28.12 21.7106 28.3734 19.8581H25.175C24.4467 23.4681 21.2484 26.1914 17.4167 26.1914C15.2317 26.1914 13.2525 25.3047 11.8117 23.8797L15.8334 19.8581H6.33337V29.3581L9.57921 26.1122C11.59 28.1231 14.3609 29.3581 17.4167 29.3581C19.8709 29.3581 22.135 28.5506 23.9717 27.2047L31.6667 34.8839L34.0259 32.5247L26.3467 24.8297Z" fill="#00B45A"/>
</g>
<rect x="0.5" y="1.35938" width="37" height="37" stroke="white"/>
<defs>
<clipPath id="clip0_15805_99039">
<rect y="0.859375" width="38" height="38" fill="white"/>
</clipPath>
</defs>
</svg>
