<svg width="39" height="39" viewBox="0 0 39 39" fill="none" xmlns="http://www.w3.org/2000/svg">
<path d="M0.849609 6.21094C0.849609 2.89723 3.5359 0.210938 6.84961 0.210938H32.8496C36.1633 0.210938 38.8496 2.89723 38.8496 6.21094V32.2109C38.8496 35.5246 36.1633 38.2109 32.8496 38.2109H6.84961C3.5359 38.2109 0.849609 35.5246 0.849609 32.2109V6.21094Z" fill="white" fill-opacity="0.2"/>
<path d="M18.8496 14.2109L17.4496 15.6109L20.0496 18.2109H9.84961V20.2109H20.0496L17.4496 22.8109L18.8496 24.2109L23.8496 19.2109L18.8496 14.2109ZM27.8496 26.2109H19.8496V28.2109H27.8496C28.9496 28.2109 29.8496 27.3109 29.8496 26.2109V12.2109C29.8496 11.1109 28.9496 10.2109 27.8496 10.2109H19.8496V12.2109H27.8496V26.2109Z" fill="#223354"/>
<path d="M6.84961 1.21094H32.8496V-0.789062H6.84961V1.21094ZM37.8496 6.21094V32.2109H39.8496V6.21094H37.8496ZM32.8496 37.2109H6.84961V39.2109H32.8496V37.2109ZM1.84961 32.2109V6.21094H-0.150391V32.2109H1.84961ZM6.84961 37.2109C4.08819 37.2109 1.84961 34.9724 1.84961 32.2109H-0.150391C-0.150391 36.0769 2.98362 39.2109 6.84961 39.2109V37.2109ZM37.8496 32.2109C37.8496 34.9724 35.611 37.2109 32.8496 37.2109V39.2109C36.7156 39.2109 39.8496 36.0769 39.8496 32.2109H37.8496ZM32.8496 1.21094C35.611 1.21094 37.8496 3.44951 37.8496 6.21094H39.8496C39.8496 2.34494 36.7156 -0.789062 32.8496 -0.789062V1.21094ZM6.84961 -0.789062C2.98362 -0.789062 -0.150391 2.34494 -0.150391 6.21094H1.84961C1.84961 3.44951 4.08819 1.21094 6.84961 1.21094V-0.789062Z" fill="white" fill-opacity="0.2"/>
</svg>
